<svg width="1512" height="982" viewBox="0 0 1512 982" fill="none" xmlns="http://www.w3.org/2000/svg">
<g clip-path="url(#clip0_57_458)">
<rect width="1512" height="982" fill="url(#paint0_linear_57_458)"/>
<g clip-path="url(#clip1_57_458)">
<path d="M781.935 668.092C781.935 668.092 729.857 555.632 790.092 485.547C839.607 427.93 906.908 416.605 959.195 451.298C981.465 466.077 1043.65 462.573 1118.58 392.258C1215.89 300.943 1459.82 351.568 1412.71 534.135C1389.92 622.485 1487.53 579.955 1440.57 668.27L781.935 668.092Z" fill="#EBF3FA"/>
<path d="M1444.58 660.178C1444.58 660.178 1496.66 772.638 1436.43 842.723C1386.91 900.34 1319.61 911.665 1267.32 876.973C1245.05 862.193 1182.86 865.698 1107.94 936.013C1010.63 1027.33 766.704 976.703 813.806 794.135C836.599 705.785 738.986 748.315 785.949 660L1444.58 660.178Z" fill="#EBF3FA"/>
<path d="M862.3 536.863L859.917 562.935L863.46 563.485L873.487 540.29L862.3 536.863Z" fill="#FFB27D"/>
<path d="M863.922 560.802C863.922 560.802 863.097 563.53 863.612 565.552C863.955 566.91 861.845 568.773 859.515 571.345C859.282 571.595 858.845 571.345 858.895 570.998C858.931 570.776 858.995 570.56 859.085 570.355C859.507 569.375 860.717 567.675 860.717 567.675C860.62 567.295 858.137 568.635 856.735 569.563C855.922 570.1 853.565 572.645 852.937 572.267C852.31 571.89 853.325 569.438 854.415 567.635C855.505 565.833 859.427 564.307 859.915 562.925C860.402 561.542 863.922 560.802 863.922 560.802Z" fill="#FFB27D"/>
<path d="M875.37 442.315L901.327 431.247L925.258 442.66L901.327 454.807L875.37 442.315Z" fill="#233862"/>
<path d="M879.57 455.035L879.938 454.535C874.713 450.603 875.728 444.035 876.04 442.535C876.058 442.442 876.049 442.345 876.014 442.256C875.979 442.168 875.92 442.091 875.843 442.035C875.805 442.009 875.762 441.992 875.717 441.987C875.672 441.981 875.626 441.987 875.584 442.004C875.542 442.021 875.504 442.048 875.475 442.084C875.446 442.119 875.426 442.16 875.418 442.205C875.075 443.953 874.118 450.935 879.57 455.035Z" fill="#EFCBAB"/>
<path d="M879.938 454.545L880.72 454.838L880.068 455.673L879.568 455.035L879.938 454.545Z" fill="#D8A987"/>
<path d="M880.72 454.835C880.72 454.835 881.687 455.54 882.027 455.335C882.027 455.335 881.713 456.255 881.24 456.352C881.24 456.352 880.36 456.057 880.068 455.682L880.72 454.835Z" fill="#EFCBAB"/>
<path d="M892.145 640.157L890.383 647.565L888.048 657.39H880.745L880.31 647.977L879.973 640.72L892.145 640.157Z" fill="#FFB27D"/>
<path d="M877.858 668.182C877.858 668.182 877.858 664.608 878.358 663.418C878.858 662.228 880.738 657.39 880.738 657.39H888.04C888.04 657.39 889.398 661.805 889.483 663.247C889.568 664.69 889.483 668.182 889.483 668.182H877.858Z" fill="#233862"/>
<path d="M924.223 668.182C924.223 668.182 924.223 664.608 923.723 663.418C923.223 662.228 921.345 657.39 921.345 657.39H914.033C914.033 657.39 912.675 661.805 912.59 663.247C912.505 664.69 912.59 668.182 912.59 668.182H924.223Z" fill="#233862"/>
<path d="M894.967 467.525C894.967 467.525 894.717 475.485 893.69 479.05L885.627 496.433L903.472 521.143L915.972 489.22L908.722 479.22C908.722 479.22 906.537 468.545 907.682 464.598C908.827 460.65 894.967 467.525 894.967 467.525Z" fill="#FFB27D"/>
<path d="M894.922 468.623C894.922 468.623 897.322 474.403 901.845 474.275C906.367 474.148 907.395 469.025 907.395 469.025L894.922 468.623Z" fill="#ED985F"/>
<path d="M892.225 463.945C892.225 463.945 890.762 456.655 889.745 454.445C888.727 452.235 887.877 442.388 899.17 441.878C899.17 441.878 903.5 442.378 905.877 440.943C905.877 440.943 905.877 442.388 905.282 442.898C905.282 442.898 908.225 441.048 911.282 444.443C914.34 447.838 910.212 460.643 910.465 463.443L892.225 463.945Z" fill="#132644"/>
<path d="M901.328 472.043C898.05 471.983 892.02 467.62 892.02 462.22V453.788C892.02 451.815 893.395 450.203 895.078 450.203H907.578C909.258 450.203 910.633 451.815 910.633 453.788V461.75C910.633 467.408 905.085 472.108 901.328 472.043Z" fill="#FFB27D"/>
<path d="M892.02 458.29C892.02 458.29 892.037 453.225 896.05 452.445C900.062 451.665 909.05 454.915 910.315 451.22C911.58 447.525 892.957 447.59 892.02 449.947C891.082 452.305 892.02 458.29 892.02 458.29Z" fill="#132644"/>
<path d="M893.693 479.05L901.16 480.727L908.708 478.907L910.633 490.492L902.163 519.33L892.895 484.775L893.693 479.05Z" fill="white"/>
<path d="M893.325 481.42L899.257 485.847L901.2 482.667L902.997 485.847L909.317 480.345L908.072 478.907L901.16 480.725L893.692 480.387L893.325 481.42Z" fill="#D2E3FC"/>
<path d="M924.397 544.307L906.627 545.418C906.525 545.25 906.41 545.25 906.282 545.44L901.055 545.765L878.773 544.375C878.773 544.375 873.167 569.955 875.37 604.043C876.072 614.918 877.642 647.123 879.137 658.513L894.41 658.672C896.39 645.792 898.68 613.65 899.91 608.13C900.468 605.63 900.989 603.147 901.472 600.68C901.912 603.48 902.195 605.752 902.19 607.18C902.19 609.445 902.84 613.05 903.755 617.395C905.04 623.515 908.82 651.73 909.947 659.098H925.972C926.165 648.948 927.035 614.475 927.222 604.052C927.705 576.25 924.397 544.307 924.397 544.307Z" fill="#EE9849"/>
<path d="M936.663 634.177C928.495 638.46 872.86 643.535 862.885 631.77C861.188 629.77 884.885 480.727 884.885 480.727C884.885 480.727 886.413 480.285 888.99 479.8C890.305 479.55 891.89 479.3 893.685 479.077C893.705 479.635 897.548 503.84 902.773 513.28C902.773 513.28 908.698 500.252 908.735 479.215C908.729 479.112 908.716 479.009 908.698 478.907C909.818 479.03 910.948 479.185 912.095 479.38C912.578 479.463 913.061 479.554 913.543 479.652C915.403 480.025 917.24 480.509 919.043 481.102C919.043 481.102 938.365 633.285 936.663 634.177Z" fill="#1C468A"/>
<path d="M891.347 479.358C891.347 479.358 882.847 544.75 879.567 549.653C878.202 551.703 876.202 552.038 873.847 551.578C873.38 551.488 872.918 551.374 872.462 551.238L865.932 548.738H865.905C864.847 548.315 863.777 547.915 862.712 547.585C856.005 545.508 856.527 539.863 858.332 532.165C860.137 524.468 871.962 487.415 875.955 484.788C883 480.158 891.347 479.358 891.347 479.358Z" fill="#1C468A"/>
<path d="M908.707 478.907C903.713 478.405 898.677 478.462 893.695 479.077C893.694 479.068 893.694 479.059 893.695 479.05C893.695 479.05 907.587 470.455 908.707 478.907Z" fill="#FFB27D"/>
<path d="M903.815 519.327C895.218 513 889 479.8 889 479.8C890.315 479.55 891.9 479.3 893.695 479.077C893.715 479.635 897.343 502.507 902.568 511.947C902.568 511.947 908.708 500.252 908.745 479.215C908.739 479.112 908.726 479.009 908.708 478.907C909.828 479.03 910.958 479.185 912.105 479.38C912.588 479.463 913.071 479.554 913.553 479.652C913.565 497.37 903.815 519.327 903.815 519.327Z" fill="#BC3F3F"/>
<path d="M898.425 465.792C898.425 465.792 902.345 465.4 904.175 465.842C904.175 465.842 903.19 467.425 901.6 467.41C900.01 467.395 898.805 466.805 898.425 465.792Z" fill="#FFF0E6"/>
<path d="M888.958 446.175L889.193 449.993C889.193 449.993 897.988 444.115 912.413 449.513L912.213 443.99C912.108 443.458 911.891 442.955 911.576 442.514C911.261 442.074 910.855 441.706 910.385 441.435C907.68 439.878 901.343 436.988 891.333 441.823C889.928 442.5 889.05 444.62 888.958 446.175Z" fill="#1C468A"/>
<path d="M894.348 475.54L891.348 479.358L899.28 484.775L901.16 480.725L894.348 475.54Z" fill="white"/>
<path d="M908.098 475.54L901.16 480.725L903.15 484.775L909.978 479.06L908.098 475.54Z" fill="white"/>
<path d="M900.935 489.675C901.012 489.599 901.109 489.547 901.215 489.525C901.322 489.504 901.432 489.515 901.532 489.557C901.632 489.598 901.717 489.668 901.777 489.758C901.837 489.848 901.869 489.954 901.869 490.063C901.869 490.171 901.837 490.277 901.777 490.367C901.717 490.457 901.632 490.527 901.532 490.568C901.432 490.61 901.322 490.621 901.215 490.6C901.109 490.579 901.012 490.526 900.935 490.45C900.884 490.399 900.844 490.339 900.816 490.272C900.788 490.206 900.774 490.135 900.774 490.063C900.774 489.991 900.788 489.919 900.816 489.853C900.844 489.786 900.884 489.726 900.935 489.675Z" fill="#D2E3FC"/>
<path d="M901.323 496.5C901.625 496.5 901.87 496.255 901.87 495.953C901.87 495.65 901.625 495.405 901.323 495.405C901.02 495.405 900.775 495.65 900.775 495.953C900.775 496.255 901.02 496.5 901.323 496.5Z" fill="#D2E3FC"/>
<path d="M900.935 501.628C901.012 501.551 901.109 501.499 901.215 501.478C901.322 501.457 901.432 501.468 901.532 501.509C901.632 501.551 901.717 501.621 901.777 501.711C901.837 501.801 901.869 501.907 901.869 502.015C901.869 502.123 901.837 502.229 901.777 502.319C901.717 502.409 901.632 502.479 901.532 502.521C901.432 502.562 901.322 502.573 901.215 502.552C901.109 502.531 901.012 502.479 900.935 502.403C900.884 502.352 900.844 502.291 900.816 502.225C900.788 502.158 900.774 502.087 900.774 502.015C900.774 501.943 900.788 501.872 900.816 501.805C900.844 501.739 900.884 501.678 900.935 501.628Z" fill="#D2E3FC"/>
<path d="M919.062 481.103C919.062 481.103 924.41 483.325 927.268 489.875C930.125 496.425 941.995 514.315 941.65 522.695C941.305 531.075 939.695 538.695 931.717 538.945C926.242 539.12 920.67 533.763 920.67 525.75C920.67 517.738 919.062 481.103 919.062 481.103Z" fill="#1C468A"/>
<path d="M936.047 534.25C935.832 536.5 934.987 538.333 932.965 538.838C926.57 540.438 923.74 534.265 925.085 528.218C925.13 528.018 925.183 527.823 925.24 527.638C926.605 523.218 931.517 522.54 933.33 522.443C933.755 522.418 934.012 522.428 934.012 522.428L934.112 522.713C934.572 524.078 936.457 529.958 936.047 534.25Z" fill="#233862"/>
<path d="M936.047 534.25C936.047 534.25 917.402 525.858 910.02 516.223C909.475 515.51 910.872 514.64 910.872 514.64L933.33 522.443L934.112 522.712C934.572 524.077 936.457 529.958 936.047 534.25Z" fill="#FFB27D"/>
<path d="M914.113 515.108H889.478V547.573H914.113V515.108Z" fill="#FCECDB"/>
<path d="M899.6 537.992L896.83 542.62L898.582 542.37L899.332 543.762L901.685 539.507L899.6 537.992Z" fill="#932424"/>
<path d="M903.27 537.705L906.04 542.332L904.29 542.082L903.538 543.477L901.185 539.222L903.27 537.705Z" fill="#932424"/>
<path d="M898.625 536.97C898.935 534.945 900.02 534.152 901.7 533.897C903.893 533.562 904.773 535.272 904.773 536.97C904.773 537.374 904.694 537.774 904.539 538.147C904.385 538.52 904.159 538.859 903.874 539.144C903.588 539.43 903.249 539.656 902.876 539.811C902.504 539.965 902.104 540.045 901.7 540.045C900 540.045 898.368 538.65 898.625 536.97Z" fill="#BC3F3F"/>
<path d="M901.695 539.42C901.321 539.417 900.953 539.335 900.613 539.18C900.273 539.025 899.97 538.8 899.722 538.52C899.532 538.309 899.39 538.058 899.307 537.786C899.225 537.514 899.204 537.227 899.245 536.945C899.467 535.485 900.217 534.735 901.675 534.515C901.968 534.452 902.271 534.456 902.562 534.526C902.853 534.596 903.125 534.731 903.357 534.92C903.857 535.353 904.15 536.098 904.15 536.965C904.15 537.616 903.891 538.241 903.431 538.701C902.971 539.161 902.346 539.42 901.695 539.42ZM902.097 534.768C901.97 534.768 901.843 534.778 901.717 534.798C900.387 535 899.732 535.655 899.527 536.988C899.493 537.229 899.513 537.474 899.584 537.707C899.655 537.94 899.777 538.154 899.94 538.335C900.159 538.583 900.429 538.783 900.73 538.921C901.032 539.058 901.359 539.132 901.69 539.135C902.265 539.134 902.816 538.905 903.223 538.499C903.629 538.092 903.857 537.54 903.857 536.965C903.857 536.183 903.607 535.515 903.167 535.138C902.868 534.887 902.487 534.756 902.097 534.768Z" fill="#932424"/>
<path d="M905.225 519.015H898.368C898.313 519.015 898.261 518.994 898.222 518.955C898.183 518.917 898.161 518.865 898.16 518.81C898.16 518.755 898.182 518.702 898.221 518.663C898.26 518.624 898.312 518.603 898.368 518.603H905.225C905.28 518.603 905.332 518.625 905.37 518.664C905.409 518.703 905.43 518.755 905.43 518.81C905.43 518.837 905.425 518.864 905.414 518.888C905.404 518.913 905.389 518.936 905.37 518.955C905.351 518.974 905.328 518.989 905.303 518.999C905.279 519.01 905.252 519.015 905.225 519.015Z" fill="#1C468A"/>
<path d="M906.555 519.88H897.037C897.01 519.88 896.983 519.875 896.958 519.864C896.933 519.854 896.91 519.839 896.891 519.819C896.871 519.8 896.856 519.777 896.846 519.752C896.835 519.727 896.83 519.7 896.83 519.673C896.831 519.618 896.853 519.566 896.892 519.527C896.93 519.489 896.983 519.468 897.037 519.468H906.555C906.582 519.468 906.609 519.473 906.633 519.483C906.658 519.493 906.681 519.509 906.7 519.528C906.719 519.547 906.734 519.569 906.744 519.594C906.755 519.619 906.76 519.646 906.76 519.673C906.76 519.727 906.738 519.78 906.7 519.818C906.662 519.857 906.61 519.879 906.555 519.88Z" fill="#1C468A"/>
<path d="M908.815 527.047H894.775C894.711 527.044 894.652 527.016 894.608 526.969C894.564 526.923 894.54 526.861 894.54 526.797C894.54 526.735 894.565 526.675 894.609 526.631C894.653 526.587 894.713 526.562 894.775 526.562H908.815C908.846 526.562 908.876 526.569 908.905 526.58C908.933 526.592 908.959 526.609 908.981 526.631C909.003 526.653 909.02 526.679 909.032 526.708C909.044 526.736 909.05 526.767 909.05 526.797C909.05 526.861 909.026 526.923 908.982 526.969C908.939 527.016 908.879 527.044 908.815 527.047Z" fill="#1C468A"/>
<path d="M908.815 528.227H894.775C894.711 528.224 894.652 528.196 894.608 528.149C894.564 528.103 894.54 528.041 894.54 527.977C894.54 527.915 894.565 527.855 894.609 527.811C894.653 527.767 894.713 527.742 894.775 527.742H908.815C908.846 527.742 908.876 527.749 908.905 527.76C908.933 527.772 908.959 527.789 908.981 527.811C909.003 527.833 909.02 527.859 909.032 527.888C909.044 527.916 909.05 527.947 909.05 527.977C909.05 528.041 909.026 528.103 908.982 528.149C908.939 528.196 908.879 528.224 908.815 528.227Z" fill="#1C468A"/>
<path d="M908.815 529.25H894.775C894.713 529.25 894.653 529.225 894.609 529.181C894.565 529.137 894.54 529.077 894.54 529.015C894.54 528.953 894.565 528.893 894.609 528.849C894.653 528.805 894.713 528.78 894.775 528.78H908.815C908.846 528.78 908.876 528.786 908.905 528.798C908.933 528.81 908.959 528.827 908.981 528.849C909.003 528.871 909.02 528.897 909.032 528.925C909.044 528.954 909.05 528.984 909.05 529.015C909.05 529.046 909.044 529.076 909.032 529.105C909.02 529.133 909.003 529.159 908.981 529.181C908.959 529.203 908.933 529.22 908.905 529.232C908.876 529.244 908.846 529.25 908.815 529.25Z" fill="#1C468A"/>
<path d="M908.815 530.387H894.775C894.713 530.387 894.653 530.363 894.609 530.319C894.565 530.275 894.54 530.215 894.54 530.152C894.54 530.09 894.565 530.03 894.609 529.986C894.653 529.942 894.713 529.917 894.775 529.917H908.815C908.846 529.917 908.876 529.924 908.905 529.935C908.933 529.947 908.959 529.964 908.981 529.986C909.003 530.008 909.02 530.034 909.032 530.063C909.044 530.091 909.05 530.122 909.05 530.152C909.05 530.183 909.044 530.214 909.032 530.242C909.02 530.271 909.003 530.297 908.981 530.319C908.959 530.34 908.933 530.358 908.905 530.37C908.876 530.381 908.846 530.387 908.815 530.387Z" fill="#1C468A"/>
<path d="M910 537.087C909.558 537.447 909.085 537.766 908.585 538.04C908.632 537.914 908.655 537.781 908.655 537.647C908.655 537.48 908.513 537.397 908.378 537.335L908.283 537.282C908.31 537.258 908.329 537.226 908.337 537.19C908.345 537.154 908.342 537.116 908.328 537.082C908.317 537.055 908.298 537.032 908.274 537.016C908.25 536.999 908.222 536.99 908.193 536.99C908.163 536.99 908.135 536.999 908.111 537.016C908.087 537.032 908.068 537.055 908.057 537.082C908.048 537.103 908.041 537.125 908.038 537.147C908.018 537.136 908 537.122 907.985 537.105C908.068 536.953 908.145 536.798 908.215 536.638C908.222 536.62 908.222 536.6 908.216 536.582C908.21 536.564 908.198 536.548 908.182 536.538C908.125 536.496 908.054 536.478 907.984 536.488C907.914 536.498 907.851 536.534 907.807 536.59C907.762 536.662 907.735 536.744 907.73 536.829C907.724 536.913 907.741 536.998 907.777 537.075C907.777 537.075 907.777 537.095 907.777 537.108C907.672 537.295 907.56 537.48 907.438 537.657C907.426 537.645 907.415 537.634 907.402 537.622C907.367 537.587 907.335 537.549 907.307 537.507C907.365 537.362 907.4 537.209 907.413 537.052C907.414 537.037 907.412 537.022 907.405 537.008C907.399 536.994 907.389 536.982 907.376 536.974C907.364 536.965 907.349 536.96 907.334 536.959C907.319 536.958 907.304 536.961 907.29 536.967C907.212 536.998 907.147 537.053 907.104 537.126C907.062 537.198 907.046 537.282 907.057 537.365C907.066 537.424 907.084 537.48 907.113 537.532C907.076 537.613 907.031 537.69 906.98 537.762C906.973 537.772 906.968 537.783 906.966 537.795C906.963 537.806 906.964 537.818 906.967 537.83C906.969 537.841 906.975 537.852 906.982 537.861C906.99 537.87 906.999 537.877 907.01 537.882C906.968 538.067 906.882 538.238 906.76 538.382C906.66 538.487 906.473 538.567 906.348 538.442C906.282 538.35 906.247 538.239 906.25 538.125C906.221 537.865 906.209 537.604 906.215 537.342C906.215 537.218 906.235 537.095 906.275 536.978C906.3 536.905 906.337 536.798 906.372 536.92C906.379 536.993 906.374 537.066 906.357 537.138C906.359 537.158 906.367 537.178 906.382 537.193C906.397 537.208 906.416 537.218 906.437 537.22C906.458 537.221 906.479 537.216 906.496 537.203C906.513 537.191 906.525 537.173 906.53 537.152C906.543 537.022 906.603 536.75 906.455 536.668C906.308 536.585 906.22 536.697 906.165 536.797C905.962 537.162 906.042 537.662 906.072 538.047C906.097 538.362 906.215 538.75 906.617 538.65C907.02 538.55 907.138 538.077 907.225 537.747C907.23 537.73 907.23 537.71 907.225 537.692L907.273 537.74L907.335 537.802C907.298 537.857 907.255 537.912 907.215 537.965C907.203 537.98 907.197 537.998 907.197 538.017C907.197 538.037 907.203 538.055 907.215 538.07C907.243 538.101 907.28 538.123 907.321 538.132C907.362 538.141 907.405 538.137 907.444 538.121C907.482 538.105 907.515 538.077 907.537 538.042C907.559 538.006 907.57 537.964 907.568 537.922C907.568 537.881 907.558 537.84 907.54 537.802C907.66 537.63 907.773 537.452 907.875 537.272C907.902 537.3 907.934 537.321 907.97 537.335C908.006 537.35 908.044 537.356 908.083 537.355H908.1C908.145 537.4 908.195 537.439 908.25 537.47C908.302 537.493 908.352 537.519 908.4 537.55C908.482 537.617 908.458 537.692 908.44 537.8C908.423 537.907 908.375 538.05 908.34 538.172C908.155 538.256 908.01 538.409 907.935 538.597C907.903 538.686 907.9 538.782 907.927 538.872C907.954 538.962 908.01 539.041 908.085 539.097C908.096 539.105 908.108 539.109 908.121 539.111C908.135 539.113 908.148 539.112 908.16 539.108C908.173 539.103 908.184 539.097 908.194 539.087C908.203 539.078 908.21 539.067 908.215 539.055C908.315 538.815 908.403 538.569 908.477 538.32V538.297C908.632 538.21 908.793 538.132 908.943 538.047C909.344 537.808 909.726 537.538 910.085 537.237C910.195 537.145 910.083 537.015 910 537.087ZM907.905 536.858C907.905 536.788 907.94 536.663 908.02 536.663C907.985 536.739 907.948 536.817 907.908 536.895C907.908 536.895 907.902 536.87 907.902 536.858H907.905ZM908.125 538.857C908.053 538.722 908.155 538.555 908.275 538.445C908.225 538.572 908.175 538.712 908.122 538.847L908.125 538.857Z" fill="#1C468A"/>
<path d="M913.145 546.645H890.615V516.233H913.145V546.645ZM890.875 546.395H912.875V516.5H890.875V546.395Z" fill="#1C468A"/>
<path d="M905.43 512.637C905.43 512.637 900.893 516.537 902.525 517.122C904.158 517.707 908.545 515.107 909.405 515.107H912.25C912.25 515.107 909.448 511.857 907.968 511.95C907.083 511.997 906.218 512.232 905.43 512.637Z" fill="#FFB27D"/>
<path d="M879.568 505.713L873.848 551.578C873.38 551.488 872.918 551.374 872.463 551.238L865.933 548.738H865.905C865.905 548.738 867.905 546.658 870.655 539.433C873.405 532.208 879.568 505.713 879.568 505.713Z" fill="#233862"/>
<path d="M1020.94 557.478C1020.94 557.478 1023.35 562.678 1023.22 564.098C1023.09 565.518 1020.94 570.03 1020.94 570.03L1018.34 558.083L1020.94 557.478Z" fill="#FFB27D"/>
<path d="M1019.05 535.115L1020.94 557.478L1018.34 558.082L1011.48 537.802L1019.05 535.115Z" fill="#FFB27D"/>
<path d="M963.145 463.287L988.97 448.042L1006.71 460.475L982.135 474.802L963.145 463.287Z" fill="#233862"/>
<path d="M976.412 470.312C976.412 470.312 975.75 474.062 972.14 476.002C968.53 477.942 965.432 478.502 966.207 484.735C966.982 490.967 962.725 492.385 961.957 496.51C961.19 500.635 961.277 508.183 971.63 505.928C981.982 503.673 1005.69 505.283 1008.27 501.928C1010.84 498.572 1009.04 491.61 1004.65 486.322C1000.26 481.035 1006.07 477.572 1004.01 472.92C1001.94 468.267 997.983 463.475 997.983 463.475C997.983 463.475 980.942 460.25 976.412 470.312Z" fill="#132644"/>
<path d="M981.302 641.845L984.795 656.557L990.027 656.527L990.22 641.845H981.302Z" fill="#FFB27D"/>
<path d="M1025.31 642.472L1035.25 656.557L1039.13 651.585L1033.14 640.537L1025.31 642.472Z" fill="#FFB27D"/>
<path d="M995.045 493.582C995.083 493.597 994.408 509.96 991.603 509.99C991.013 509.99 986.677 498.533 986.125 498.383C983.125 497.563 982.702 490.222 982.742 490.215C984.012 489.965 984.38 488.215 984.352 480.715L984.927 480.827L994.583 482.74C994.583 482.74 994.363 485.78 994.358 488.642C994.35 491.045 994.5 493.325 995.045 493.582Z" fill="#FFB27D"/>
<path d="M956.04 477.165L955.728 476.5C962.753 473.158 963.13 465.25 963.12 463.43C963.119 463.315 963.152 463.203 963.214 463.107C963.276 463.01 963.365 462.934 963.47 462.888C963.52 462.865 963.574 462.856 963.628 462.86C963.682 462.864 963.735 462.882 963.78 462.912C963.826 462.942 963.863 462.983 963.888 463.031C963.913 463.079 963.926 463.133 963.925 463.188C963.91 465.315 963.368 473.678 956.04 477.165Z" fill="#EFCBAB"/>
<path d="M955.728 476.505L954.748 476.66L955.31 477.79L956.04 477.165L955.728 476.505Z" fill="#D8A987"/>
<path d="M954.75 476.66C954.75 476.66 953.455 477.248 953.108 476.91C953.108 476.91 953.258 478.058 953.788 478.283C953.788 478.283 954.88 478.15 955.312 477.783L954.75 476.66Z" fill="#EFCBAB"/>
<path d="M994.582 482.75C994.582 482.75 994.363 485.79 994.358 488.653C988.953 488.5 986.107 483.57 984.927 480.838L994.582 482.75Z" fill="#EF9E67"/>
<path d="M982.94 481.167C982.94 481.167 979.28 477.34 977.858 473.725C976.843 471.142 976.205 460.942 986.467 460.363C988.533 460.239 990.599 460.581 992.515 461.362C994.975 462.387 998.735 464.915 996.987 474.28L996.67 477.387L982.94 481.167Z" fill="#132644"/>
<path d="M1038.19 648.368C1038.19 648.368 1035.63 648.81 1033.52 648.97C1033.05 649.005 1032.61 649.028 1032.22 649.028C1031.21 649.028 1029.38 648.645 1028.15 648.358L1028.06 648.338C1027.52 648.21 1027.11 648.105 1026.96 648.065L1026.89 648.05C1026.89 648.05 1014.09 633.8 1006.92 610.963C1006.75 610.431 1006.57 609.893 1006.38 609.35C1002.45 597.895 994.312 583.518 990.02 570.503C989.337 568.431 988.722 566.474 988.175 564.633C987.997 564.04 987.825 563.46 987.675 562.883C984.512 551.883 983.597 544.678 982.752 536.968L1008.56 543.533C1008.56 543.533 1019.38 590.5 1038.19 648.368Z" fill="#A53D38"/>
<path d="M996.273 484.268C996.273 484.268 983.773 487 982.2 479.195C980.628 471.39 977.95 466.488 985.848 464.413C993.745 462.338 995.915 465 997.075 467.478C998.235 469.955 999.48 483.355 996.273 484.268Z" fill="#FFB27D"/>
<path d="M991.517 463.07C991.517 463.07 989.932 472.92 984.94 475.338C979.947 477.755 977.377 476.803 977.377 476.803C977.377 476.803 980.77 472.778 980.48 467.008C980.48 467 988.05 459.235 991.517 463.07Z" fill="#132644"/>
<path d="M990.818 463.985C990.818 463.985 993.792 465.515 994.817 467.375C995.842 469.235 997.975 469.898 998.112 472.895C998.112 472.895 999.442 466.145 995.827 463.213C992 460.1 990.818 463.985 990.818 463.985Z" fill="#132644"/>
<path d="M984.62 655.735C984.835 657.77 984.607 659.828 983.953 661.767C983.953 661.767 983.098 665.67 986.953 665.742C990.808 665.815 991.737 665.452 991.302 663.06C990.867 660.667 990.04 656.527 990.04 656.527L984.62 655.735Z" fill="#FFB27D"/>
<path d="M983.952 661.768C983.952 661.768 983.242 665.453 983.677 667.41C983.677 667.41 984.837 668.28 987.63 668.28C990.275 668.28 991.652 667.41 991.652 667.41C991.652 667.41 991.735 663.373 991.027 661.66C991.027 661.668 988.305 665.75 983.952 661.768Z" fill="#C45446"/>
<path d="M1048.39 663.45C1048.39 663.45 1041.3 655.585 1039.14 651.585L1033.87 654.282L1045.64 665.342L1048.39 664.98L1048.39 663.45Z" fill="#FFB27D"/>
<path d="M1052.89 668.06C1052.89 668.06 1045.28 668.06 1043.97 667.912C1042.67 667.765 1041.61 665.885 1040.2 663.055C1039.62 661.9 1038.32 661.262 1036.99 660.912V667.46H1034.99L1033.07 660.5C1031.82 658.195 1032.97 656.105 1033.86 654.282C1034.88 654.282 1037.65 654.985 1042.88 660.88C1044.6 662.817 1046.5 663.507 1048.38 663.45C1048.41 663.466 1048.43 663.48 1048.46 663.49C1052.82 665.45 1052.89 668.06 1052.89 668.06Z" fill="#C45446"/>
<path d="M1033.52 648.97C1033.06 649.005 1032.61 649.027 1032.22 649.027C1031.21 649.027 1029.38 648.645 1028.15 648.357L1028.06 648.337L1026.96 648.065L1026.89 648.05C1026.89 648.05 1014.09 633.8 1006.92 610.962C1006.75 610.431 1006.57 609.893 1006.39 609.35C1002.46 597.895 994.313 583.517 990.02 570.502C989.337 568.431 988.722 566.474 988.175 564.632C987.998 564.04 987.825 563.46 987.675 562.882L992.238 559.417C992.238 559.417 1005.94 581.605 1010.18 602.485C1013.69 619.797 1028.83 642.235 1033.52 648.97Z" fill="#912F2F"/>
<path d="M992.705 604.438C992.782 614.59 992.267 637.938 990.955 647.6C990.955 647.6 989.705 648.71 986.592 648.723C983.407 648.723 981.982 647.56 981.982 647.56C978.665 630.758 976.305 616.853 974.587 604.873C973.177 595.04 971.925 586.623 970.96 579.353C970.097 572.925 975.5 555.5 975.5 555.5L995.75 553.525C995.41 571.328 992.66 598.535 992.705 604.438Z" fill="#A53D38"/>
<path d="M986.582 648.723C984.963 648.817 983.354 648.411 981.972 647.56C978.655 630.757 976.295 616.852 974.577 604.872C973.167 595.04 971.915 586.623 970.95 579.353C970.098 572.925 975.5 555.5 975.5 555.5L982.367 559.892C982.367 559.892 972.617 568.753 975.02 585.503C977.422 602.253 983.25 646.35 986.582 648.723Z" fill="#912F2F"/>
<path d="M1018.48 541.485C1017.15 541.898 1015.77 542.192 1014.38 542.365C1012.13 542.692 1009.95 542.903 1008.54 543.538C1004.41 545.415 994.37 489.998 994.37 489.998C994.37 489.998 1001.67 490.068 1005.03 495.353C1008.38 500.638 1021.43 526.748 1022.59 535.115C1023.11 538.877 1021.16 540.58 1018.48 541.485Z" fill="#1C468A"/>
<path d="M1033.52 616.225C1033.52 616.225 1032.85 617.9 1031.02 620.253C1029.91 621.658 1028.68 622.961 1027.34 624.145C1023.24 627.778 1016.7 631.71 1006.59 633.66C1006.05 633.763 1005.51 633.86 1004.95 633.955C1001.91 634.455 998.983 634.818 996.203 635.063C991.185 635.507 986.142 635.615 981.11 635.385C978.145 635.25 975.538 635.005 973.345 634.73C968.398 634.115 965.578 633.353 965.578 633.353C965.578 633.353 965.578 583.273 969.703 553.535C971.99 537.065 979.653 490.225 979.653 490.225L983.463 489.64L992.598 509.99L994.385 489.99L998.54 491.325C999.543 491.647 1000.45 492.219 1001.17 492.988C1001.89 493.756 1002.4 494.696 1002.66 495.718L1033.52 616.225Z" fill="#1C468A"/>
<path d="M1004.08 539.3L982.883 537.15L986.318 506.443L1007.51 508.59L1004.08 539.3Z" fill="#BC3F3F"/>
<path d="M986.317 506.443L984.96 506.34L981.765 537.023L982.882 537.15L986.317 506.443Z" fill="#9B2323"/>
<path d="M968.54 522.267C968.54 522.267 983.423 526.815 997.643 528.85C997.643 528.85 1002.34 530.877 1000.14 531.435C999.578 531.577 971.098 537.787 966.875 533.757L968.54 522.267Z" fill="#FFB27D"/>
<path d="M983.412 489.64C983.412 489.64 972.277 490.988 970.412 493.235C964.49 500.343 959.12 530.693 963.762 537.7C969.31 546.07 977.852 532.933 980.53 525.2C981.912 521.183 984.175 496.938 983.412 489.64Z" fill="#1C468A"/>
<path d="M996.25 528.64C996.25 528.64 998 528.477 998.33 527.92C998.992 526.802 1000.04 526.815 1000.92 526.67C1001.79 526.525 1002.77 525.565 1002.95 525.76C1003.12 525.955 1002.3 527.01 1001.84 527.4C1002.38 527.43 1002.91 527.349 1003.4 527.162C1004.03 526.865 1006.21 524.377 1006.22 525.447C1006.24 528.027 1006.04 528.447 1003.83 530.265C1002.02 531.765 995.86 532.317 995.86 532.317L996.25 528.64Z" fill="#FFB27D"/>
<path d="M983.382 521.597L982.947 525.957C982.12 525.775 981.309 525.524 980.522 525.207C974.417 522.762 976.828 510.627 976.828 510.627C977.778 515.47 980.837 519.22 983.382 521.597Z" fill="#233862"/>
<path d="M997.975 463.475C997.975 463.475 988.947 460.045 976.412 470.312L976.662 467.967C976.773 466.93 977.096 465.927 977.612 465.02C978.128 464.114 978.826 463.324 979.662 462.7C981.572 461.282 984.617 459.72 989.192 459.075C990.735 458.857 992.307 459.067 993.738 459.681C995.17 460.295 996.405 461.29 997.31 462.557L997.975 463.475Z" fill="#1C468A"/>
<path d="M1018.49 541.485C1017.15 541.898 1015.77 542.192 1014.38 542.365L1008.53 516.512C1008.53 516.512 1018.38 536.385 1018.49 541.485Z" fill="#233862"/>
<path d="M991.8 479.977C991.8 479.977 992.375 481.087 993.22 481.095C994.065 481.102 996.22 480.885 996.378 480.687C996.598 480.243 996.787 479.783 996.943 479.313C996.943 479.313 993.398 479.25 991.8 479.977Z" fill="white"/>
<path d="M1282.25 512.85C1281.68 512.057 1281 511.339 1280.25 510.712C1279.18 509.89 1278.06 508.348 1278.39 507.848C1278.72 507.348 1281.92 505 1281.92 505L1283.63 509.223L1282.25 512.85Z" fill="#FFB27D"/>
<path d="M1309.88 463.595L1337.76 452.545L1353.36 467.583L1326.86 477.918L1309.88 463.595Z" fill="#233862"/>
<path d="M1294.67 523.163L1283.57 508.913L1282.25 512.85C1282.25 512.85 1293.62 538.705 1298.82 536.3C1301.25 535.18 1294.67 523.163 1294.67 523.163Z" fill="#FFB27D"/>
<path d="M1329.37 476.673C1329.37 476.673 1323.95 479.863 1327.28 486.045C1327.28 486.045 1322.52 485.178 1321.51 483.76C1321.57 484.067 1321.67 484.365 1321.8 484.648C1321.8 484.648 1316.25 483.943 1315.22 481.87C1313.11 477.6 1318.23 477.87 1320.45 473.435C1323.35 467.643 1327.89 463.09 1334.31 466.288C1334.31 466.288 1343.28 465.788 1339.22 477.3C1335.16 488.813 1339 489.82 1339 489.82C1339 489.82 1337.8 490.07 1337.28 489.928C1337.28 489.928 1336.6 489.443 1336.57 488.985C1336.57 488.985 1336.54 489.68 1336.68 489.938C1336.68 489.938 1332.43 489.235 1330.78 487.125C1329.13 485.015 1328.14 478.94 1329.37 476.673Z" fill="#C94C43"/>
<path d="M1321.55 495.193H1321.53C1321.5 495.195 1321.5 495.193 1321.55 495.193Z" fill="#FFB27D"/>
<path d="M1334.71 491.402C1334.87 492.83 1335.06 494.108 1335.15 494.718C1335.21 495.155 1336.2 502.935 1334.4 503.012C1332.6 503.09 1328.12 512.31 1326.11 512.235C1323.86 512.15 1321.86 495.193 1321.56 495.193C1322.13 494.943 1323.89 489.365 1324.45 487.238C1325.13 484.658 1325.65 481.87 1325.65 481.87L1334.8 482.447L1335.35 482.482C1335.03 483.641 1334.78 484.816 1334.6 486.003C1334.58 486.148 1334.56 486.298 1334.54 486.443C1334.37 487.658 1334.52 489.642 1334.71 491.402Z" fill="#FFB27D"/>
<path d="M1324.38 480.948C1324.38 480.948 1322.9 476.243 1323.2 472.633C1323.41 470.058 1327.52 462.75 1336.33 466.49C1336.33 466.49 1338.49 465.975 1340.54 468.328C1342.18 470.198 1344.29 473.86 1338.96 480.968L1337.42 483.435L1324.38 480.948Z" fill="#C94C43"/>
<path d="M1334.71 491.403C1328.31 489.528 1325.59 482.133 1325.59 482.133C1328.3 482.213 1331.83 484.093 1334.59 486.003C1334.57 486.148 1334.55 486.298 1334.53 486.443C1334.37 487.658 1334.52 489.643 1334.71 491.403Z" fill="#ED975D"/>
<path d="M1335.16 488.805C1335.16 488.805 1323.6 485.945 1325.49 478.77C1327.38 471.595 1327.16 466.393 1334.62 467.915C1342.09 469.438 1342.8 472.553 1342.75 475.1C1342.7 477.648 1338.22 489.363 1335.16 488.805Z" fill="#FFB27D"/>
<path d="M1339.92 469.127C1339.92 469.127 1334.54 476.71 1329.37 476.672C1324.2 476.635 1322.45 474.782 1322.45 474.782C1325.39 473.317 1327.73 470.876 1329.07 467.875C1329.07 467.875 1338.6 464.5 1339.92 469.127Z" fill="#C94C43"/>
<path d="M1338.96 469.605C1338.96 469.605 1340.81 472.105 1340.9 474.085C1340.99 476.065 1340.26 479.892 1341.39 480.055C1341.39 480.055 1345.28 474.962 1343.46 471.02C1341.54 466.84 1338.96 469.605 1338.96 469.605Z" fill="#C94C43"/>
<path d="M1339.32 470C1339.32 470 1334.74 478.217 1327.89 479.422C1327.89 479.422 1335.42 475.625 1337.48 469.945C1339.54 464.265 1339.32 470 1339.32 470Z" fill="#C94C43"/>
<path d="M1333.36 484.205C1333.36 484.205 1333.51 485.298 1334.2 485.555C1334.9 485.813 1336.75 486.283 1336.93 486.165C1337.25 485.864 1337.55 485.541 1337.82 485.198C1337.82 485.198 1334.9 484.08 1333.36 484.205Z" fill="white"/>
<path d="M1329.04 593.973C1328.89 594.585 1328.75 595.193 1328.6 595.795C1327.73 599.418 1326.92 602.778 1326.41 605.592C1325.74 609.25 1325.58 611.972 1326.46 613.115C1328.71 616.067 1328.14 631.865 1327.39 643.235C1326.96 650.002 1326.46 655.203 1326.46 655.203L1322.37 659.413C1322.37 659.413 1321.07 652.695 1319.44 644.545C1317.25 633.59 1314.44 620.045 1313.33 616.73C1312.46 614.1 1311.18 602.875 1310.05 591.415C1310 590.843 1309.94 590.27 1309.88 589.695C1309.69 587.695 1309.5 585.695 1309.32 583.742C1308.31 572.902 1309.77 562.693 1309.77 562.693C1309.77 562.693 1315.09 558.315 1321.94 557.725C1325.97 557.375 1329.77 558.657 1331.64 563.617C1334.37 570.83 1331.61 583.283 1329.04 593.973Z" fill="#FFB27D"/>
<path d="M1329.04 593.97C1323.44 589.925 1315.56 582.72 1312.7 570.927C1312.15 565.06 1316.78 559.488 1321.95 557.725C1325.98 557.373 1329.78 558.657 1331.65 563.615C1334.37 570.827 1331.61 583.285 1329.04 593.97Z" fill="#ED975D"/>
<path d="M1349.47 522.698L1376.99 529.81V533.022C1376.99 533.022 1349.6 532.702 1347.83 529.65C1346.07 526.597 1349.47 522.698 1349.47 522.698Z" fill="#FFB27D"/>
<path d="M1377 628.642L1375.71 633.953C1375.71 633.953 1370.03 631.015 1362.81 627.217C1351.56 621.295 1336.59 613.277 1333.66 611.027C1331.73 609.542 1329.16 601.485 1326.8 592.37C1323.28 578.78 1320.17 562.845 1320.17 562.845C1320.17 562.845 1325.39 542.767 1339.36 555.055C1347.72 562.407 1346.42 576.577 1345.51 587.597C1344.9 594.99 1344.46 600.967 1347.23 602.515C1351.21 604.737 1360.86 612.857 1367.68 620.805C1370.13 623.655 1372.21 626.483 1373.54 629.007L1377 628.642Z" fill="#FFB27D"/>
<path d="M1377 529.81C1377 529.81 1382.05 527.31 1384.06 527.08C1386.07 526.85 1389.44 526.76 1389.44 527.08C1389.44 527.4 1385.82 529.647 1384.86 529.81C1383.9 529.972 1382.05 531.337 1382.61 531.497C1383.17 531.657 1386.15 530.975 1386.19 531.497C1386.23 532.02 1384.38 532.34 1384.06 532.747C1383.74 533.155 1382.61 533.63 1380.81 533.39C1379.01 533.15 1377 533.027 1377 533.027L1377 529.81Z" fill="#FFB27D"/>
<path d="M1377 605.5C1359.22 631.093 1313.37 633.963 1313.37 633.963C1305.92 606.788 1308.97 538.078 1310.68 512.538C1310.57 508.078 1310.74 504.305 1311.48 502.855C1312.62 500.605 1318.81 496.673 1321.04 494.723C1321.35 494.599 1321.67 494.515 1322 494.473C1322.33 495.643 1326.47 509.665 1326.88 509.373C1327.29 509.08 1334.25 495.75 1334.98 494.185C1335.73 494.208 1336.23 494.225 1336.39 494.233C1337.62 494.293 1344.25 495.62 1344.81 496.69C1345 497.063 1346.91 502.11 1349.31 508.79C1349.31 508.796 1349.31 508.802 1349.31 508.808C1353.79 521.34 1360.37 518.988 1362.98 522.7C1364.62 525.03 1363.92 529.38 1360.87 533.14C1360.62 533.46 1360.34 533.773 1360.05 534.08C1357.73 536.533 1354.59 537.983 1349.47 537.23C1348.2 537.043 1345.63 535.813 1343.53 533.998C1348.55 552.905 1377 605.5 1377 605.5Z" fill="#1C468A"/>
<path d="M1322.3 493.818L1319.89 495.193C1319.89 495.193 1326.46 513.78 1326.79 513.693C1327.11 513.605 1336.98 494.293 1336.98 494.293L1334.98 493.453L1326.88 509.365L1322.3 493.818Z" fill="#F99746"/>
<path d="M1342.79 469.852C1342.79 469.852 1334.37 465.13 1320.45 473.435L1321.05 471.152C1321.31 470.142 1321.78 469.198 1322.43 468.377C1323.07 467.557 1323.88 466.879 1324.8 466.385C1326.9 465.265 1330.14 464.17 1334.76 464.207C1336.32 464.218 1337.84 464.657 1339.17 465.475C1340.49 466.293 1341.57 467.46 1342.28 468.847L1342.79 469.852Z" fill="#1C468A"/>
<path d="M1300.81 475.91L1300.61 475.208C1308.07 472.998 1309.67 465.25 1309.94 463.443C1309.96 463.33 1310.01 463.225 1310.08 463.14C1310.16 463.055 1310.26 462.994 1310.37 462.965C1310.42 462.951 1310.48 462.95 1310.53 462.963C1310.58 462.975 1310.63 463.001 1310.67 463.037C1310.71 463.074 1310.74 463.12 1310.76 463.171C1310.78 463.222 1310.78 463.277 1310.77 463.33C1310.43 465.425 1308.59 473.603 1300.81 475.91Z" fill="#EFCBAB"/>
<path d="M1300.61 475.208H1299.61L1299.99 476.413L1300.81 475.91L1300.61 475.208Z" fill="#D8A987"/>
<path d="M1299.61 475.208C1299.61 475.208 1298.24 475.59 1297.95 475.208C1297.95 475.208 1297.92 476.365 1298.41 476.67C1298.41 476.67 1299.51 476.707 1299.99 476.42L1299.61 475.208Z" fill="#EFCBAB"/>
<path d="M1322.79 495.5C1322.79 495.5 1324.99 499.545 1333.75 495.86L1326.87 509.38L1322.79 495.5Z" fill="white"/>
<path d="M1319.89 495.193C1319.89 495.193 1318.75 533.667 1309.25 541.125C1308.62 541.636 1307.9 542.008 1307.11 542.217C1302.32 543.44 1298.84 540.585 1296.48 536.627C1293.2 531.127 1292.09 523.51 1292.65 521.752C1293.71 518.41 1296.15 524.322 1301.26 522.7C1306.38 521.077 1307.76 500.45 1311.34 497.45C1312.28 496.665 1319.89 495.193 1319.89 495.193Z" fill="#1C468A"/>
<path d="M1273.59 522.573C1272.62 522.04 1271.69 521.45 1270.79 520.807C1270.18 520.374 1269.62 519.884 1269.1 519.342C1268.87 519.095 1268.67 518.814 1268.52 518.51C1268.52 518.51 1280.11 504.562 1281.02 502.923C1281.93 501.283 1290.69 487.75 1290.69 487.75C1291.5 488.148 1292.29 488.593 1293.04 489.085C1293.55 489.414 1294.05 489.769 1294.52 490.148C1295.43 490.833 1296.2 491.68 1296.8 492.648C1296.8 492.648 1284.07 505.543 1283.17 507.398C1282.27 509.253 1273.59 522.573 1273.59 522.573Z" fill="#EFCBAB"/>
<path d="M1270.79 520.807C1270.18 520.374 1269.62 519.884 1269.1 519.342C1268.87 519.095 1268.67 518.814 1268.52 518.51C1268.52 518.51 1280.11 504.562 1281.02 502.923C1281.93 501.283 1290.69 487.75 1290.69 487.75C1291.5 488.148 1292.29 488.593 1293.04 489.085C1293.55 489.414 1294.05 489.769 1294.52 490.148C1290.95 493.793 1281.3 503.735 1280.47 505.44C1279.68 507.1 1273.39 516.807 1270.79 520.807Z" fill="#DDB08E"/>
<path d="M1282.71 500.2C1282.71 500.2 1279.29 503.515 1278.9 505.775L1282.48 508.642C1282.48 508.642 1285.6 505.58 1286.59 503.315L1282.71 500.2Z" fill="#C94C43"/>
<path d="M1283.57 508.91C1283.57 508.91 1283.82 506.66 1283.3 505.868C1282.77 505.075 1282.73 502.892 1282.25 503.118C1281.77 503.343 1282.08 505.138 1281.78 506C1281.47 506.863 1281.02 510.883 1282.25 511.645C1283.48 512.408 1283.57 508.91 1283.57 508.91Z" fill="#FFB27D"/>
<path d="M1280.11 503.262C1280.11 503.262 1278.69 503.042 1278.17 503.987C1277.64 504.932 1277 506.467 1277.98 507.075C1278.96 507.682 1280.11 503.262 1280.11 503.262Z" fill="#FFB27D"/>
<path d="M1327.4 643.235C1326.96 650.002 1326.46 655.203 1326.46 655.203L1322.37 659.413C1322.37 659.413 1321.08 652.695 1319.44 644.545C1319.44 644.545 1324.03 646.137 1327.4 643.235Z" fill="white"/>
<path d="M1330.57 661.288L1328.36 662.48C1327.56 662.765 1326.9 662.845 1326.09 663.158C1324.86 663.63 1323.99 664.558 1323.95 664.725C1323.32 667.255 1322.45 667.092 1322.45 667.092L1313.59 667.177C1313.17 666.967 1313.88 665.178 1314.22 664.845C1315.05 664.02 1317.56 664.435 1318.47 661.845C1318.98 660.388 1321.53 655.845 1321.53 655.845L1321.54 655.83C1321.63 655.785 1322.1 655.693 1324.66 656.225C1325.98 656.498 1326.53 653.812 1326.53 653.812C1326.85 653.891 1327.15 654.031 1327.41 654.225C1327.87 654.554 1328.21 655.019 1328.39 655.555C1328.71 656.475 1330.01 657.805 1330.95 658.668C1331.51 659.19 1331.95 659.547 1331.95 659.547C1331.95 659.547 1332.34 660.023 1330.57 661.288Z" fill="#233862"/>
<path d="M1377 628.642L1375.72 633.952C1375.72 633.952 1370.03 631.015 1362.81 627.217C1365.62 625.437 1367.01 622.797 1367.69 620.805C1370.13 623.655 1372.21 626.482 1373.54 629.007L1377 628.642Z" fill="white"/>
<path d="M1384.35 630.702H1384.32C1384.15 630.662 1383.39 630.41 1382.88 629.202C1382.55 628.402 1382.45 627.742 1382.13 626.952L1380.88 624.782C1379.57 623.05 1379.11 623.455 1379.11 623.455C1379.11 623.455 1378.76 623.897 1378.25 624.477C1377.42 625.437 1376.13 626.775 1375.22 627.12C1374.69 627.311 1374.23 627.667 1373.92 628.137C1373.73 628.407 1373.6 628.71 1373.53 629.03C1373.53 629.03 1376.23 629.5 1375.99 630.83C1375.54 633.405 1375.64 633.875 1375.69 633.957L1375.71 633.975C1375.71 633.975 1380.31 636.385 1381.78 636.86C1384.4 637.697 1385.78 639.48 1386.62 640.292C1386.79 640.456 1386.99 640.577 1387.22 640.648C1387.44 640.719 1387.68 640.736 1387.91 640.7C1388.6 640.59 1389.5 640.367 1389.7 639.95L1384.35 630.702Z" fill="#233862"/>
<path d="M1325.05 521.25C1325.05 520.987 1325.13 520.73 1325.28 520.511C1325.42 520.292 1325.63 520.122 1325.87 520.021C1326.12 519.921 1326.38 519.894 1326.64 519.946C1326.9 519.997 1327.14 520.124 1327.32 520.31C1327.51 520.496 1327.64 520.733 1327.69 520.991C1327.74 521.249 1327.71 521.516 1327.61 521.759C1327.51 522.002 1327.34 522.21 1327.12 522.356C1326.9 522.502 1326.65 522.58 1326.38 522.58C1326.21 522.58 1326.03 522.546 1325.87 522.479C1325.71 522.412 1325.57 522.314 1325.44 522.191C1325.32 522.067 1325.22 521.92 1325.15 521.759C1325.09 521.598 1325.05 521.425 1325.05 521.25Z" fill="#233862"/>
<path d="M1325.05 531.115C1325.05 530.852 1325.13 530.595 1325.28 530.376C1325.42 530.157 1325.63 529.987 1325.87 529.886C1326.12 529.786 1326.38 529.759 1326.64 529.811C1326.9 529.862 1327.14 529.989 1327.32 530.175C1327.51 530.361 1327.64 530.598 1327.69 530.856C1327.74 531.114 1327.71 531.381 1327.61 531.624C1327.51 531.867 1327.34 532.075 1327.12 532.221C1326.9 532.367 1326.65 532.445 1326.38 532.445C1326.21 532.445 1326.03 532.411 1325.87 532.344C1325.71 532.277 1325.57 532.179 1325.44 532.055C1325.32 531.932 1325.22 531.785 1325.15 531.624C1325.09 531.463 1325.05 531.29 1325.05 531.115Z" fill="#233862"/>
<path d="M1360.86 533.14C1360.61 533.46 1360.33 533.773 1360.04 534.08C1357.72 536.533 1354.58 537.983 1349.47 537.23C1348.19 537.043 1345.62 535.813 1343.52 533.998C1343.52 533.998 1339.3 522.473 1339.87 520.848C1340.44 519.223 1348.56 531.848 1355.31 532.445C1357.94 532.678 1359.73 532.89 1360.86 533.14Z" fill="#233862"/>
<path d="M1311.27 524.18L1309.27 541.125C1308.64 541.636 1307.92 542.008 1307.14 542.217C1302.34 543.44 1298.86 540.585 1296.5 536.627C1298.96 536.97 1304.92 537.5 1306.22 534.905C1307.86 531.615 1311.27 524.18 1311.27 524.18Z" fill="#233862"/>
<path d="M1194.89 431.88C1194.89 431.88 1197.28 429.725 1197.86 428.215C1198.44 426.705 1198.36 424.17 1198.36 422.522C1198.27 422.487 1198.17 422.473 1198.07 422.482C1197.97 422.49 1197.87 422.521 1197.79 422.573C1197.7 422.624 1197.63 422.694 1197.57 422.777C1197.52 422.861 1197.48 422.956 1197.47 423.055C1197.29 423.84 1196.97 425.655 1196.3 426.02C1195.64 426.385 1194.16 426.342 1193.81 428.215C1193.45 430.087 1194.89 431.88 1194.89 431.88Z" fill="#B56F40"/>
<path d="M1189.43 432.25C1189.43 432.25 1187.25 427.802 1187.69 426.355C1188.13 424.907 1194.81 423.32 1195.69 424.002C1196.58 424.685 1195.69 433.003 1195.69 433.003L1189.43 432.25Z" fill="#B56F40"/>
<path d="M1259.66 566.215C1259.66 566.215 1259.34 569.887 1260.61 571.642C1261.89 573.397 1262.58 574.995 1263.01 574.195C1263.43 573.395 1262.32 570.632 1262.69 570.695C1263.06 570.757 1264.09 573.992 1264.62 575.005C1265.14 576.017 1266.25 577.612 1267 576.812C1267.74 576.012 1266.31 568.46 1265.72 567.502C1265.14 566.545 1263.91 564.417 1263.91 564.417L1259.66 566.215Z" fill="#B56F40"/>
<path d="M1213.76 455.552L1239.17 441.262L1256.24 462.412L1232.98 473.697L1213.76 455.552Z" fill="#233862"/>
<path d="M1224.43 462.29C1224.43 462.29 1223.9 464.57 1222.41 465.38C1220.92 466.19 1223.26 468.38 1222.68 470C1222.09 471.62 1224.46 473.697 1224.46 473.697L1240.86 475.585C1241.6 475.224 1242.22 474.678 1242.68 474C1243.14 473.323 1243.42 472.538 1243.48 471.722C1243.69 468.902 1243.95 465.38 1243.95 465.38L1236.78 459.912L1226.46 460.412L1224.43 462.29Z" fill="#C94C43"/>
<path d="M1169.3 434.932C1168.8 433.719 1168.37 432.477 1168.02 431.212C1167.77 430.357 1167.61 429.481 1167.53 428.595C1167.5 428.191 1167.53 427.784 1167.61 427.387C1167.61 427.387 1188.76 423.017 1190.84 422.172C1192.91 421.327 1211.11 415.235 1211.11 415.235C1211.57 416.21 1211.97 417.212 1212.31 418.235C1212.52 418.877 1212.73 419.59 1212.89 420.32C1213.19 421.67 1213.35 423.102 1213.14 424.345C1213.14 424.345 1191.71 426.89 1189.49 427.955C1187.27 429.02 1169.3 434.932 1169.3 434.932Z" fill="#EFCBAB"/>
<path d="M1168.02 431.212C1167.77 430.357 1167.61 429.481 1167.53 428.595C1167.5 428.191 1167.53 427.784 1167.61 427.387C1167.61 427.387 1188.76 423.017 1190.84 422.172C1192.91 421.327 1211.1 415.235 1211.1 415.235C1211.57 416.21 1211.97 417.212 1212.3 418.235C1212.52 418.877 1212.72 419.59 1212.89 420.32C1206.85 421.07 1190.49 423.142 1188.45 424.117C1186.48 425.057 1173.41 429.425 1168.02 431.212Z" fill="#DDB08E"/>
<path d="M1194.43 420.89C1194.43 420.89 1188.78 421.438 1186.74 423.25L1187.93 428.575C1187.93 428.575 1193.12 428.048 1195.73 426.675L1194.43 420.89Z" fill="#C94C43"/>
<path d="M1199.55 667.177C1199.55 667.177 1199.55 663.78 1200.04 662.65C1200.52 661.52 1202.29 656.922 1202.29 656.922H1209.25C1209.25 656.922 1210.54 661.117 1210.62 662.49C1210.7 663.862 1210.62 667.177 1210.62 667.177H1199.55Z" fill="#233862"/>
<path d="M1243.61 667.177C1243.61 667.177 1243.61 663.78 1243.12 662.65C1242.64 661.52 1240.87 656.922 1240.87 656.922H1233.93C1233.93 656.922 1232.64 661.117 1232.56 662.49C1232.48 663.862 1232.56 667.177 1232.56 667.177H1243.61Z" fill="#233862"/>
<path d="M1226.25 475.975C1226.25 475.975 1224.86 483.412 1223.39 486.615L1215 490.732L1226.75 513.932L1242.86 499.385L1237.5 488.945C1237.5 488.945 1237 478.607 1238.64 475.065C1240.27 471.522 1226.25 475.975 1226.25 475.975Z" fill="#B56F40"/>
<path d="M1226.05 477C1226.05 477 1227.47 482.773 1231.73 483.305C1236 483.838 1237.71 479.188 1237.71 479.188L1226.05 477Z" fill="#99592E"/>
<path d="M1231.57 481.138C1228.5 480.61 1223.47 475.638 1224.25 470.568L1225.47 462.653C1225.75 460.8 1227.28 459.483 1228.86 459.725L1240.61 461.533C1242.19 461.783 1243.24 463.488 1242.96 465.34L1241.81 472.81C1240.98 478.13 1235.09 481.75 1231.57 481.138Z" fill="#B56F40"/>
<path d="M1200.42 549.55C1200.4 548.625 1201.63 586.348 1199.82 607.765C1198.04 628.918 1199.82 658.348 1199.82 658.348C1199.82 658.348 1205.63 661.55 1211.92 658.348C1211.92 658.348 1218.82 617.49 1218.78 607.765C1218.73 597.41 1226.28 551.165 1226.28 551.165L1200.42 549.55Z" fill="#F99746"/>
<path d="M1243.35 658.348C1243.35 658.348 1237.55 661.55 1231.26 658.348C1231.26 658.348 1224.36 617.49 1224.4 607.765C1224.42 603.393 1223.09 592.615 1221.53 581.628C1219.41 566.595 1216.89 551.165 1216.89 551.165L1243.77 549.488C1243.77 549.488 1241.55 586.618 1243.37 607.765C1245.18 628.913 1243.35 658.348 1243.35 658.348Z" fill="#F99746"/>
<path d="M1229.05 471.105C1227.91 470.927 1225.65 470.32 1225.55 468.267C1225.53 467.991 1225.56 467.712 1225.66 467.452C1225.76 467.192 1225.92 466.958 1226.12 466.767C1226.37 466.565 1226.65 466.419 1226.96 466.341C1227.27 466.263 1227.59 466.254 1227.9 466.315L1231.43 466.855C1232.1 466.96 1232.54 467.222 1232.73 467.642C1233.06 468.347 1232.58 469.257 1232.36 469.615C1231.61 470.84 1230.77 471.337 1229.69 471.175C1229.65 471.172 1229.41 471.157 1229.05 471.105ZM1227.88 466.545C1227.6 466.49 1227.31 466.497 1227.04 466.566C1226.76 466.635 1226.5 466.763 1226.28 466.942C1226.1 467.109 1225.97 467.314 1225.88 467.542C1225.79 467.77 1225.76 468.015 1225.78 468.257C1225.83 469.31 1226.5 470.08 1227.77 470.547C1228.39 470.77 1229.05 470.902 1229.71 470.94H1229.72C1230.69 471.087 1231.47 470.627 1232.16 469.49C1232.32 469.24 1232.8 468.357 1232.52 467.74C1232.36 467.397 1231.98 467.177 1231.39 467.087L1227.88 466.545Z" fill="#2C3A64"/>
<path d="M1237.18 472.355C1236.82 472.3 1236.58 472.238 1236.54 472.228C1235.47 472.06 1234.81 471.33 1234.46 469.938C1234.36 469.528 1234.18 468.52 1234.71 467.938C1235.02 467.598 1235.52 467.475 1236.19 467.58L1239.71 468.12C1240.03 468.156 1240.34 468.262 1240.61 468.431C1240.88 468.599 1241.11 468.825 1241.28 469.093C1241.42 469.335 1241.5 469.605 1241.51 469.882C1241.53 470.159 1241.48 470.437 1241.37 470.693C1240.66 472.63 1238.32 472.53 1237.18 472.355ZM1236.15 467.818C1235.56 467.728 1235.13 467.818 1234.88 468.103C1234.42 468.603 1234.63 469.603 1234.69 469.88C1235.01 471.175 1235.61 471.848 1236.58 471.995H1236.6C1237.24 472.158 1237.9 472.229 1238.56 472.205C1239.91 472.14 1240.78 471.605 1241.14 470.618C1241.24 470.394 1241.28 470.151 1241.27 469.908C1241.26 469.665 1241.19 469.428 1241.07 469.215C1240.92 468.978 1240.71 468.778 1240.47 468.63C1240.23 468.482 1239.95 468.389 1239.67 468.358L1236.15 467.818Z" fill="#2C3A64"/>
<path d="M1232.3 468.655C1232.27 468.651 1232.25 468.639 1232.23 468.622C1232.21 468.604 1232.19 468.581 1232.19 468.555C1232.18 468.537 1232.18 468.519 1232.18 468.501C1232.18 468.482 1232.19 468.465 1232.2 468.449C1232.2 468.433 1232.22 468.418 1232.23 468.407C1232.25 468.396 1232.26 468.387 1232.28 468.382C1232.34 468.365 1233.82 467.957 1234.95 468.795C1234.96 468.806 1234.97 468.82 1234.98 468.836C1234.99 468.852 1235 468.87 1235 468.888C1235 468.906 1235 468.925 1235 468.943C1234.99 468.961 1234.98 468.978 1234.97 468.992C1234.96 469.007 1234.95 469.02 1234.93 469.029C1234.92 469.039 1234.9 469.045 1234.88 469.047C1234.86 469.05 1234.84 469.049 1234.83 469.044C1234.81 469.039 1234.79 469.031 1234.78 469.02C1233.76 468.27 1232.37 468.647 1232.36 468.652C1232.34 468.658 1232.32 468.659 1232.3 468.655Z" fill="#2C3A64"/>
<path d="M1229.2 490.717L1221.25 487.277C1221.25 487.277 1217.15 519.927 1222.63 521.947C1222.63 521.947 1238.27 494.175 1237.2 490.61L1229.2 490.717Z" fill="white"/>
<path d="M1224.17 485.208C1224.17 485.208 1221.92 485.593 1220.76 486.708C1220.76 486.708 1222.46 492.24 1226.99 493.89L1228.93 490.715C1228.93 490.715 1225.25 488.973 1224.17 485.208Z" fill="#D2E3FC"/>
<path d="M1228.93 490.717C1228.93 490.717 1236.32 490.432 1237.43 486.867C1238.38 487.995 1238.89 489.435 1238.85 490.912C1238.85 490.912 1236.51 494.447 1230.66 494.487L1228.93 490.717Z" fill="#D2E3FC"/>
<path d="M1229.54 475.585C1229.54 475.585 1233.48 475.76 1235.22 476.46C1235.22 476.46 1234.02 477.882 1232.44 477.64C1230.87 477.397 1229.77 476.642 1229.54 475.585Z" fill="#FFF0E6"/>
<path d="M1201.67 464C1198.1 466.25 1193.23 469.298 1189.25 471.708C1189.07 471.112 1188.93 470.506 1188.83 469.893C1187.5 461.468 1189.42 432.25 1189.42 432.25C1190.27 431.841 1191.18 431.577 1192.12 431.468C1194.71 431.258 1195.68 432.995 1195.68 432.995C1195.68 432.995 1200.2 458.698 1201.67 464Z" fill="#B56F40"/>
<path d="M1264.89 565.625L1262.2 566.745C1257.89 568.277 1253.25 566.21 1251.84 561.86C1249.94 556 1249.75 549.687 1249.05 544.492C1248.7 541.937 1248.3 536.67 1246.75 532.567L1249.46 623.397C1208.92 626.27 1189.14 602.967 1189.14 602.967C1188.1 578.377 1197.92 522.967 1201.5 503.767C1199.77 499.867 1187.5 488.67 1185.46 477.675C1184.51 472.57 1187.49 468.957 1191.11 466.52C1195.67 463.447 1201.24 462.235 1201.24 462.235L1214.34 479.75C1214.76 480.188 1215.13 480.67 1215.44 481.187C1216.44 483.247 1221.69 486.662 1221.69 486.662C1221.68 486.77 1222.26 516.19 1223.33 517.13C1224.87 516.545 1235.21 495.847 1237.49 488.95C1241.11 489.95 1244.65 491.216 1248.08 492.735C1248.08 492.735 1255.18 496.522 1256.18 513.027C1257.03 527.027 1265.59 544.892 1267.53 561.125C1267.64 562.059 1267.44 563.004 1266.97 563.817C1266.49 564.629 1265.76 565.264 1264.89 565.625Z" fill="#1C468A"/>
<path d="M1220.23 485.642C1220.23 485.642 1221.19 514.17 1222.41 521.31L1240.61 489.875L1238.11 488.945L1223.72 515L1222.3 486.657L1220.23 485.642Z" fill="#C94C43"/>
<path d="M1224.17 484.532C1224.17 484.532 1221.92 484.917 1220.76 486.032C1220.76 486.032 1222.46 491.565 1226.99 493.215L1228.93 490.715C1228.93 490.715 1225.25 488.3 1224.17 484.532Z" fill="white"/>
<path d="M1228.93 490.718C1228.93 490.718 1236.33 489.76 1237.43 486.195C1238.38 487.322 1238.89 488.761 1238.85 490.238C1238.85 490.238 1236.51 493.773 1230.66 493.815L1228.93 490.718Z" fill="white"/>
<path d="M1219.42 525.702C1220.16 525.702 1220.76 525.1 1220.76 524.357C1220.76 523.615 1220.16 523.012 1219.42 523.012C1218.67 523.012 1218.07 523.615 1218.07 524.357C1218.07 525.1 1218.67 525.702 1219.42 525.702Z" fill="#233862"/>
<path d="M1215.55 536.458C1215.55 536.191 1215.63 535.931 1215.77 535.71C1215.92 535.489 1216.13 535.316 1216.38 535.215C1216.62 535.113 1216.89 535.086 1217.16 535.139C1217.42 535.191 1217.66 535.319 1217.84 535.507C1218.03 535.696 1218.16 535.936 1218.21 536.197C1218.26 536.458 1218.24 536.728 1218.13 536.974C1218.03 537.22 1217.86 537.43 1217.64 537.577C1217.42 537.725 1217.16 537.803 1216.89 537.803C1216.53 537.802 1216.19 537.66 1215.94 537.408C1215.69 537.156 1215.55 536.814 1215.55 536.458Z" fill="#233862"/>
<path d="M1215.6 468.943L1216.05 468.518C1211.55 463.768 1213.64 457.458 1214.2 456.018C1214.23 455.928 1214.24 455.83 1214.22 455.736C1214.2 455.642 1214.16 455.556 1214.09 455.488C1214.06 455.455 1214.02 455.432 1213.97 455.419C1213.93 455.406 1213.88 455.405 1213.84 455.414C1213.8 455.424 1213.75 455.445 1213.72 455.475C1213.68 455.504 1213.66 455.542 1213.64 455.585C1213.01 457.265 1210.91 464 1215.6 468.943Z" fill="#EFCBAB"/>
<path d="M1216.05 468.517L1216.77 468.935L1215.99 469.652L1215.6 468.942L1216.05 468.517Z" fill="#D8A987"/>
<path d="M1216.77 468.935C1216.77 468.935 1217.61 469.79 1217.98 469.635C1217.98 469.635 1217.52 470.49 1217.03 470.508C1217.03 470.508 1216.22 470.07 1215.99 469.653L1216.77 468.935Z" fill="#EFCBAB"/>
<path d="M1224.84 464C1224.84 464 1227.99 464.212 1228.93 462.617C1228.93 462.617 1231.49 463.255 1232.61 462.297C1232.61 462.297 1236.56 463.095 1236.67 461.5C1236.67 461.5 1239.69 467.537 1242.99 466.275C1246.3 465.012 1237.7 458.892 1237.7 458.892L1226.45 460.392L1224.84 464Z" fill="#C94C43"/>
<path d="M1225.08 459.485L1224.43 462.29C1224.43 462.29 1233.22 459.17 1243.95 465.38L1243.82 460.862C1243.81 460.426 1243.7 459.998 1243.51 459.605C1243.32 459.213 1243.05 458.866 1242.71 458.587C1240.77 456.99 1236.13 453.852 1227.54 456.337C1226.34 456.7 1225.36 458.265 1225.08 459.485Z" fill="#1C468A"/>
<path d="M1186.68 424.895C1186.65 424.723 1186.07 423.513 1186.86 422.395C1187.65 421.278 1192.86 419.555 1193.34 420.463C1193.83 421.37 1193.52 424.52 1191.84 425.213C1190.17 425.905 1186.81 425.595 1186.68 424.895Z" fill="#B56F40"/>
<path d="M1201.5 503.763C1199.77 499.863 1187.5 488.665 1185.46 477.67C1184.51 472.565 1187.49 468.953 1191.11 466.515C1191.11 466.515 1189.42 474.235 1194.23 481.203C1199.05 488.17 1201.5 503.763 1201.5 503.763Z" fill="#233862"/>
<path d="M1262.2 566.75C1257.89 568.282 1253.25 566.215 1251.84 561.865C1249.94 556.005 1249.75 549.692 1249.05 544.497C1248.7 541.942 1248.3 536.675 1246.75 532.573C1246.9 532.798 1251.56 540.173 1255.75 552.107C1260.01 564.227 1258.68 566 1262.2 566.75Z" fill="#233862"/>
<path d="M1426.75 666.978H1403.89C1402.66 665.938 1404.74 663.578 1406.89 663.42C1407.83 663.35 1409.02 663.545 1410.39 663.832C1410.7 659.655 1412.5 640.867 1419.27 641.622C1426.89 642.467 1419.27 649.895 1417.12 654.292C1415.53 657.543 1413.84 662.222 1413.07 664.427C1413.69 664.56 1414.32 664.692 1414.99 664.812C1415.99 661.712 1419.75 651.29 1424.53 651.897C1430.13 652.61 1427.88 656.787 1423.91 659.267C1420.99 661.092 1417.41 663.685 1415.71 664.937C1417.18 665.195 1418.68 665.315 1420.18 665.295C1424.09 665.203 1426 666.358 1426.75 666.978Z" fill="#82B378"/>
<path d="M846.818 666.978C846.818 666.978 836.272 638.02 828.87 640.477C821.467 642.935 846.818 666.978 846.818 666.978Z" fill="#82B378"/>
<path d="M842.78 666.978C841.883 666.978 825.058 649.518 823.935 654.088C822.813 658.658 842.78 666.978 842.78 666.978Z" fill="#82B378"/>
<path d="M860.727 666.978C860.727 666.978 853.767 660.598 844.957 662.26C836.147 663.923 832.385 665.74 826.85 664.48C821.315 663.22 818.49 666.98 818.49 666.98L860.727 666.978Z" fill="#82B378"/>
<path d="M1103.3 594.835C1104.93 592.292 1091.25 564.18 1098.59 548.527C1099.51 546.577 1116.55 549.49 1116.55 549.49C1116.55 549.49 1120.03 589.022 1118.07 599.49C1116.69 606.88 1113.98 628.69 1112.51 640.855L1112.5 640.972C1112.15 643.865 1111.87 646.202 1111.7 647.655C1111.56 648.753 1111.69 649.867 1112.08 650.905C1113.16 653.88 1115.52 660.04 1116.7 660.887C1116.7 660.887 1110.25 662.732 1109.02 662.007C1107.78 661.282 1104.63 649.922 1104.63 649.922C1105.18 648.865 1105.37 647.661 1105.19 646.485C1104.94 644.937 1104.57 642.512 1104.15 639.525C1098.59 617.02 1099.43 600.907 1103.3 594.835Z" fill="#FFB27D"/>
<path d="M1066.89 645.283C1067.77 644.489 1068.38 643.431 1068.62 642.265C1068.94 640.73 1069.45 638.33 1070.12 635.388C1072.87 612.388 1079.35 597.603 1085.12 593.29C1087.54 591.485 1084.68 560.353 1097.08 548.29C1098.62 546.79 1113.53 555.54 1113.53 555.54C1113.53 555.54 1102.82 593.75 1097.3 602.845C1093.39 609.27 1083.15 628.715 1077.48 639.578C1076.1 642.205 1074.99 644.328 1074.31 645.65C1073.8 646.631 1073.53 647.717 1073.51 648.823C1073.48 651.99 1073.05 660.475 1074.3 661.215C1075.02 661.639 1075.69 662.137 1076.3 662.7C1076.3 662.7 1070.42 662.2 1069.71 662.155C1068.99 662.11 1064.49 648.01 1064.4 647.74C1065.31 646.77 1066.22 645.88 1066.89 645.283Z" fill="#FFB27D"/>
<path d="M1061.49 652.94L1060.01 661.59L1060.79 662.17L1065.42 655.49L1061.49 652.94Z" fill="#233862"/>
<path d="M1061.65 653.6C1066.69 656.247 1067.44 665.075 1068.24 666.975L1077.47 667.002C1078.86 666.532 1078.31 664.56 1076.31 662.712C1076.31 662.712 1070.43 662.212 1069.71 662.167C1068.99 662.122 1064.49 648.022 1064.41 647.752C1062.29 650.052 1060.23 652.86 1061.65 653.6Z" fill="#1C468A"/>
<path d="M1069.71 624.345C1070.12 635.39 1092.09 633.268 1092.09 633.268L1094.99 619.22L1096.92 609.895L1097.56 606.805L1096.6 606.348L1082.62 599.713L1078.24 597.633L1078.06 598.185L1070.53 621.785L1069.71 624.345Z" fill="#F99746"/>
<path d="M1070.53 621.795C1076.87 615.268 1095 619.22 1095 619.22L1096.92 609.895L1096.6 606.348L1082.62 599.713L1078.07 598.185L1070.53 621.785L1070.53 621.795Z" fill="#EF7E29"/>
<path d="M1102.96 658.728L1104.17 666.973H1105.5L1106.13 660.583L1102.96 658.728Z" fill="#233862"/>
<path d="M1102.96 658.73C1105.76 660.023 1108.83 665.48 1110.25 666.98L1121.89 667.063C1123.35 665.87 1118.26 662.015 1116.7 660.885C1116.7 660.885 1110.25 662.73 1109.02 662.005C1107.78 661.28 1104.63 649.92 1104.63 649.92C1103.25 652.58 1100.9 657.775 1102.96 658.73Z" fill="#1C468A"/>
<path d="M1097.56 602.733L1100.45 634.455C1105.82 641.263 1120.01 637.08 1120.01 637.08C1120.01 637.08 1121.09 610.875 1121.64 609.83L1119.58 609.225L1097.56 602.733Z" fill="#F99746"/>
<path d="M1097.56 602.733L1100.45 634.455C1100.6 618.843 1120.8 620.413 1120.8 620.413L1119.58 609.238L1097.56 602.733Z" fill="#EF7E29"/>
<path d="M1122.3 453.72L1092.67 441.98L1076.1 457.957L1104.26 468.942L1122.3 453.72Z" fill="#233862"/>
<path d="M1108.42 459.13C1108.42 459.13 1108.49 462.66 1111.08 463.76C1116.44 466.035 1111.33 468.673 1116.6 472.393C1117.81 473.25 1118.68 478.573 1110.3 479.365C1101.92 480.158 1100.88 480.865 1100.88 480.865C1100.88 480.865 1094.66 484.853 1087.77 480.753C1083.77 478.378 1088.81 471.753 1086.98 470.073C1084.51 467.808 1084.18 460.375 1087.77 457.308C1091.36 454.24 1097.11 452.458 1097.11 452.458L1108.42 459.13Z" fill="#132644"/>
<path d="M1131.93 466.808L1132.15 466.058C1124.23 463.708 1122.53 455.475 1122.23 453.558C1122.22 453.439 1122.16 453.329 1122.08 453.24C1122 453.151 1121.89 453.088 1121.78 453.057C1121.72 453.042 1121.66 453.042 1121.61 453.055C1121.55 453.068 1121.5 453.096 1121.46 453.134C1121.42 453.173 1121.38 453.222 1121.36 453.276C1121.35 453.33 1121.34 453.388 1121.35 453.445C1121.72 455.668 1123.66 464.358 1131.93 466.808Z" fill="#EFCBAB"/>
<path d="M1132.15 466.062H1133.21L1132.8 467.342L1131.93 466.807L1132.15 466.062Z" fill="#D8A987"/>
<path d="M1133.21 466.062C1133.21 466.062 1134.66 466.467 1134.97 466.062C1134.97 466.062 1135 467.292 1134.49 467.617C1134.49 467.617 1133.32 467.657 1132.8 467.342L1133.21 466.062Z" fill="#EFCBAB"/>
<path d="M1110.25 481.552C1109.66 481.477 1107.88 480.052 1107.08 477.882C1106.11 475.267 1105.27 472.422 1105.27 472.422L1102.7 472.845L1095.82 473.967L1095.26 474.06C1095.76 475.391 1096.18 476.754 1096.51 478.14C1096.98 479.985 1097.19 481.884 1097.15 483.787C1097.08 485.252 1096.32 485.642 1095.9 485.935C1095.71 486.057 1103.15 510.478 1106.75 509.263C1109.87 508.208 1110.54 481.47 1110.25 481.552Z" fill="#FFB27D"/>
<path d="M1097.15 483.787C1101.28 482.117 1105.26 472.422 1105.26 472.422C1104.38 472.343 1103.5 472.488 1102.69 472.845C1100.41 473.757 1098.09 475.942 1096.51 478.14C1096.97 479.985 1097.19 481.885 1097.15 483.787Z" fill="#ED975D"/>
<path d="M1094.5 479.842C1094.5 479.842 1106.78 477.842 1105.42 470.222C1104.07 462.603 1104.74 457.195 1096.84 458.145C1088.94 459.095 1087.94 462.275 1087.77 464.932C1087.6 467.59 1091.28 480.165 1094.5 479.842Z" fill="#FFB27D"/>
<path d="M1093.42 486.93C1093.42 486.93 1072.69 480.68 1071.22 478.96C1069.75 477.24 1066.16 454.198 1066.16 450.883L1063.14 451.315C1063.14 451.315 1060.91 477.5 1063.5 483.45C1066.09 489.4 1092.23 498.75 1092.23 498.75L1093.42 486.93Z" fill="#FFB27D"/>
<path d="M1109.61 481.25C1109.61 481.25 1107.07 489.185 1097.11 484.192L1107.58 507.212L1110.31 486.63L1109.61 481.25Z" fill="#F99746"/>
<path d="M1118.09 483.595C1118.09 483.595 1116.84 487.722 1140.84 500.805L1158.54 488.682L1160.66 490.462C1160.66 490.462 1143.69 510.92 1141.04 510.485C1138.39 510.05 1120.17 498.047 1120.17 498.047L1118.09 483.595Z" fill="#FFB27D"/>
<path d="M1052.84 585.908C1053.44 587.63 1054.15 589.308 1054.98 590.93C1057.53 596.038 1062.55 603.853 1070.94 608.54C1080.45 613.863 1111.28 624.04 1132.45 619.108C1132.45 619.108 1130.45 552.108 1126 524.55C1125.9 523.91 1125.79 523.293 1125.69 522.7C1126.98 527.648 1133.6 529.275 1136.32 528.363C1142.29 526.363 1144.36 521.718 1144.64 516.81C1145.08 509.255 1141.27 501.06 1140.83 500.81C1131.05 495.255 1129.23 486.438 1124.48 483.29C1120.23 480.478 1110.11 481.215 1109.62 481.265L1107.4 503.283L1097.11 484.208C1097.09 484.208 1080.5 482.76 1071.22 478.958C1071.22 478.958 1043.47 517.36 1077.83 516.855C1077.83 525.7 1073.7 533.738 1069.71 545.693C1065.75 557.548 1052.84 585.908 1052.84 585.908Z" fill="#1C468A"/>
<path d="M1097.18 474.282C1097.18 474.282 1097.04 475.533 1096.26 475.835C1095.47 476.138 1093.38 476.723 1093.17 476.585C1092.8 476.251 1092.46 475.892 1092.15 475.51C1092.15 475.51 1095.43 474.18 1097.18 474.282Z" fill="white"/>
<path d="M1066.23 450.898C1066.23 450.898 1067.5 450.015 1066.83 447.59C1066.38 445.968 1066.68 444.65 1066.33 444.69C1065.97 444.73 1065.68 446.838 1065.46 447.358C1065.28 447.795 1062.52 442.58 1061.82 442.988C1061.11 443.395 1059.74 445.458 1063.03 452.588L1066.23 450.898Z" fill="#FFB27D"/>
<path d="M1158.53 488.683C1158.53 488.683 1160.42 484.213 1161.04 483.29C1162.29 481.468 1165.83 480.325 1166.06 481.133C1166.29 481.94 1163.79 483.133 1163.68 484.988C1163.65 485.505 1164.71 484.503 1165.36 484.113C1165.75 483.88 1165.99 484.073 1165.78 484.363C1164.74 485.878 1164.17 487.433 1163.18 488.005C1162.18 488.578 1160.66 490.453 1160.66 490.453L1158.53 488.683Z" fill="#FFB27D"/>
<path d="M1109.61 481.257L1107.4 503.277L1097.15 483.787L1093.42 483.802L1108.5 511.245L1112.37 481.142L1109.61 481.257Z" fill="#AA443E"/>
<path d="M1089.44 458.425C1089.44 458.425 1085.84 462.675 1097.19 464.74C1100.83 465.408 1102.66 468.93 1101.67 471.905C1100.2 476.318 1103.92 481.068 1109.4 479.358C1113.76 477.995 1106.65 457.62 1102.79 457.313C1098.92 457.005 1089.44 458.425 1089.44 458.425Z" fill="#132644"/>
<path d="M1093.41 459.4C1093.41 459.4 1089.77 462.018 1089.46 464.113C1089.15 466.208 1088.3 469.205 1086.91 467.087C1085.52 464.97 1085.28 462.11 1086.91 460.175C1088.53 458.24 1092.16 457.37 1092.94 458.038C1093.73 458.705 1093.41 459.4 1093.41 459.4Z" fill="#132644"/>
<path d="M1086.98 458.185C1086.98 458.185 1093.94 452.185 1108.73 461.015L1108.93 457.37C1108.36 455.203 1107.68 455.22 1105.68 454.165C1103.45 452.975 1100 451.81 1095.09 451.85C1091.72 451.878 1089.75 451.445 1088.22 454.448L1086.98 458.185Z" fill="#1C468A"/>
<path d="M1179.13 500.057C1180.01 499.084 1180.83 498.058 1181.58 496.985C1182.1 496.261 1182.55 495.489 1182.91 494.68C1183.08 494.31 1183.19 493.917 1183.25 493.515C1183.25 493.515 1164.78 482.322 1163.1 480.835C1161.43 479.347 1146.32 467.517 1146.32 467.517C1145.56 468.28 1144.85 469.089 1144.19 469.937C1143.77 470.472 1143.34 471.072 1142.94 471.705C1142.19 472.877 1141.57 474.172 1141.35 475.412C1141.35 475.412 1160.7 484.977 1162.43 486.722C1164.17 488.467 1179.13 500.057 1179.13 500.057Z" fill="#EFCBAB"/>
<path d="M1181.59 496.985C1182.1 496.261 1182.55 495.489 1182.92 494.68C1183.08 494.31 1183.19 493.918 1183.25 493.515C1183.25 493.515 1164.78 482.322 1163.1 480.835C1161.43 479.347 1146.32 467.517 1146.32 467.517C1145.56 468.28 1144.85 469.089 1144.19 469.937C1143.78 470.472 1143.34 471.072 1142.94 471.705C1148.38 474.42 1163.11 481.857 1164.69 483.455C1166.25 485.012 1177.1 493.5 1181.59 496.985Z" fill="#DDB08E"/>
<path d="M1160.15 478.425C1160.15 478.425 1165.29 480.828 1166.61 483.22L1163.7 487.838C1163.7 487.838 1159 485.608 1157 483.443L1160.15 478.425Z" fill="#C94C43"/>
<path d="M1163.18 488.015C1163.97 487.674 1164.68 487.161 1165.25 486.515C1166.03 485.545 1167.08 483.975 1165.78 484.373C1164.47 484.77 1162.15 486.405 1161.28 486.557C1160.41 486.71 1160.72 487.39 1160.66 487.582C1160.6 487.775 1163.18 488.015 1163.18 488.015Z" fill="#FFB27D"/>
<path d="M1052.84 585.907C1053.44 587.63 1054.15 589.308 1054.98 590.93C1060.54 585.047 1068.29 575.68 1073.7 564.407C1083.02 544.965 1077.83 516.855 1077.83 516.855C1077.83 525.7 1073.7 533.737 1069.71 545.692C1065.75 557.547 1052.84 585.907 1052.84 585.907Z" fill="#233862"/>
<path d="M1110.3 519.187C1110.3 519.004 1110.25 518.825 1110.15 518.672C1110.04 518.52 1109.9 518.401 1109.73 518.331C1109.56 518.26 1109.37 518.242 1109.19 518.278C1109.01 518.314 1108.85 518.402 1108.72 518.532C1108.59 518.661 1108.5 518.827 1108.47 519.007C1108.43 519.186 1108.45 519.373 1108.52 519.542C1108.59 519.712 1108.71 519.857 1108.86 519.959C1109.01 520.061 1109.19 520.115 1109.38 520.115C1109.62 520.115 1109.86 520.017 1110.03 519.843C1110.2 519.669 1110.3 519.433 1110.3 519.187Z" fill="#233862"/>
<path d="M1110.3 536.045C1110.3 535.861 1110.25 535.682 1110.15 535.53C1110.04 535.377 1109.9 535.258 1109.73 535.188C1109.56 535.118 1109.37 535.099 1109.19 535.135C1109.01 535.171 1108.85 535.259 1108.72 535.389C1108.59 535.519 1108.5 535.684 1108.47 535.864C1108.43 536.044 1108.45 536.23 1108.52 536.4C1108.59 536.569 1108.71 536.714 1108.86 536.816C1109.01 536.918 1109.19 536.972 1109.38 536.972C1109.62 536.972 1109.86 536.875 1110.03 536.701C1110.2 536.527 1110.3 536.291 1110.3 536.045Z" fill="#233862"/>
<path d="M1126 524.55C1125.9 523.91 1125.79 523.293 1125.69 522.7C1126.98 527.648 1133.6 529.275 1136.32 528.363C1142.29 526.363 1144.36 521.718 1144.64 516.81C1144 517.145 1134.32 522.093 1129.82 519.188C1125.23 516.225 1122.39 509.52 1122.3 509.312L1126 524.55Z" fill="#233862"/>
<path d="M1321.08 434.057C1321.08 434.057 1318.36 436.107 1315.21 435.937C1312.88 435.81 1310.5 433.768 1310.4 433.63L1308.7 436.932C1308.7 436.932 1313.05 439.302 1316.64 438.432C1317.75 438.165 1319.5 436.977 1320.27 436.112C1320.78 435.548 1321.07 434.818 1321.08 434.057Z" fill="#6BB7BF"/>
<path d="M1320.69 427.36L1325.25 425.22C1325.25 425.22 1325.06 434.912 1317.22 438.235C1317.22 438.235 1321.95 431.387 1320.69 427.36Z" fill="#86D1CD"/>
<path d="M837.44 522.25C837.44 522.25 834.715 524.298 831.572 524.128C829.24 524 826.855 521.958 826.76 521.82L825.057 525.123C825.057 525.123 829.407 527.493 833.002 526.623C834.105 526.355 835.855 525.168 836.63 524.303C837.139 523.739 837.427 523.01 837.44 522.25Z" fill="#6BB7BF"/>
<path d="M837.052 515.555L841.61 513.412C841.61 513.412 841.422 523.105 833.575 526.427C833.575 526.427 838.312 519.58 837.052 515.555Z" fill="#86D1CD"/>
<path d="M1204.27 371C1204.27 371 1210.9 366.397 1215.87 373.25L1221.34 370.9C1221.34 370.9 1218.64 366.65 1208.05 368.527C1201.12 369.765 1204.27 371 1204.27 371Z" fill="#5685D8"/>
<path d="M1197.75 375.5C1197.75 375.5 1199.55 368.052 1213.14 368.052C1213.14 368.052 1208.05 368.535 1204.07 375.145L1197.75 375.5Z" fill="#739AF0"/>
<path d="M1160.83 400.905C1160.83 400.905 1157.17 398.592 1156.79 395.8C1156.79 395.8 1153.22 395.992 1152.45 397.15C1152.45 397.15 1154.09 401.772 1156.02 402.637C1156.02 402.637 1160.35 402.927 1160.83 400.905Z" fill="#ED7D2B"/>
<path d="M1403.47 595.65C1403.47 595.65 1399.8 593.338 1399.42 590.545C1399.42 590.545 1395.86 590.738 1395.09 591.893C1395.09 591.893 1396.73 596.515 1398.65 597.392C1398.65 597.382 1402.99 597.672 1403.47 595.65Z" fill="#ED7D2B"/>
<path d="M806.058 589.182C806.058 589.182 802.398 586.87 802.013 584.078C802.013 584.078 798.45 584.27 797.68 585.427C797.68 585.427 799.318 590.05 801.243 590.927C801.25 590.915 805.578 591.205 806.058 589.182Z" fill="#ED7D2B"/>
<line x1="802.002" y1="667" x2="1454" y2="668.005" stroke="#1C468A" stroke-width="2"/>
</g>
<ellipse cx="1127" cy="734.5" rx="267" ry="50.5" fill="#EBF3FA"/>
<path d="M582.418 583.498C347.044 504.45 96.0669 635.488 0 710.888V982H1512V633.719C1456.65 666.791 1310.2 735.549 1167.24 746.002C988.546 759.067 876.635 682.307 582.418 583.498Z" fill="white" stroke="white"/>
</g>
<rect x="0.5" y="0.5" width="1511" height="981" stroke="black"/>
<defs>
<linearGradient id="paint0_linear_57_458" x1="0" y1="0" x2="1438" y2="982" gradientUnits="userSpaceOnUse">
<stop offset="0.0416667" stop-color="#002B5C" stop-opacity="0.83"/>
<stop offset="0.453125" stop-color="#1852A0"/>
<stop offset="0.713542" stop-color="#E4B711"/>
<stop offset="0.9997" stop-color="#EBBB0F"/>
<stop offset="0.9998" stop-color="#5FD7DC" stop-opacity="0.693331"/>
<stop offset="0.9999" stop-color="#FF0002" stop-opacity="0.69"/>
</linearGradient>
<clipPath id="clip0_57_458">
<rect width="1512" height="982" fill="white"/>
</clipPath>
<clipPath id="clip1_57_458">
<rect width="800" height="500" fill="white" transform="translate(713 256)"/>
</clipPath>
</defs>
</svg>
